<mxfile host="app.diagrams.net" modified="2024-05-13T04:05:40.803Z" agent="Mozilla/5.0 (Windows NT 10.0; Win64; x64; rv:125.0) Gecko/20100101 Firefox/125.0" version="24.4.0" etag="aXXtkG7XeVZ8oDVw10iZ" type="github">
  <diagram name="Page-1" id="A5AWI27EDMa8Fpqqivny">
    <mxGraphModel>
      <root>
        <mxCell id="0" />
        <mxCell id="1" parent="0" />
      </root>
    </mxGraphModel>
  </diagram>
</mxfile>
